<?xml version="1.0" standalone="no"?>
<!DOCTYPE svg PUBLIC "-//W3C//DTD SVG 20010904//EN"
 "http://www.w3.org/TR/2001/REC-SVG-20010904/DTD/svg10.dtd">
<svg version="1.0" xmlns="http://www.w3.org/2000/svg"
 width="1200.000000pt" height="1200.000000pt" viewBox="0 0 1200.000000 1200.000000"
 preserveAspectRatio="xMidYMid meet">
<metadata>
Created by potrace 1.11, written by Peter Selinger 2001-2013
</metadata>
<g transform="translate(0.000000,1200.000000) scale(0.100000,-0.100000)"
fill="#000000" stroke="none">
<path d="M5790 11754 c-457 -25 -824 -78 -1200 -173 -2054 -522 -3649 -2117
-4171 -4171 -118 -466 -173 -910 -173 -1410 0 -500 55 -944 173 -1410 522
-2054 2117 -3649 4171 -4171 466 -118 910 -173 1410 -173 500 0 944 55 1410
173 2054 522 3649 2117 4171 4171 118 466 173 910 173 1410 0 308 -12 481 -50
770 -251 1881 -1425 3524 -3125 4375 -656 329 -1350 525 -2082 590 -166 14
-584 26 -707 19z m2420 -3234 l0 -130 120 0 120 0 0 -135 0 -135 -120 0 -120
0 0 135 0 135 -2045 0 -2045 0 0 -130 0 -130 -120 0 -120 0 0 130 0 130 120 0
120 0 0 130 0 130 2045 0 2045 0 0 -130z m-4338 -2267 l3 -1868 122 -3 122 -3
3 -137 3 -137 1200 0 1200 0 3 138 3 137 -448 0 c-246 0 -681 3 -965 7 l-518
6 0 124 0 123 -125 0 -125 0 0 135 0 135 -121 0 -122 0 7 92 c3 50 6 652 6
1337 l0 1246 115 -3 115 -4 0 141 0 141 125 0 125 0 0 130 0 130 1088 0 c598
0 1300 -3 1560 -7 l472 -6 0 -134 0 -133 125 0 125 0 0 -130 0 -130 120 0 120
0 0 -535 0 -535 120 0 120 0 0 800 0 800 115 0 115 0 0 -530 0 -530 135 0 135
0 0 130 0 130 230 0 230 0 0 -130 0 -130 -230 0 -230 0 0 -135 0 -135 -135 0
-135 0 0 -135 0 -135 -115 0 -115 0 0 -130 0 -130 -490 0 -490 0 0 130 0 130
-120 0 -120 0 0 135 0 135 -110 0 -110 0 0 135 0 135 -240 0 -240 0 0 -535 0
-534 -122 -3 -123 -3 -3 -662 -2 -663 125 0 125 0 0 -135 0 -135 120 0 119 0
3 -137 3 -138 1198 -3 1197 -2 0 -130 0 -130 -120 0 -120 0 0 -135 0 -135
-115 0 -115 0 0 135 0 135 -255 0 -255 0 0 -135 0 -135 -115 0 -115 0 0 135 0
135 -120 0 -120 0 0 -270 0 -270 -365 0 -365 0 0 135 0 135 -110 0 -110 0 0
135 0 135 -610 0 -610 0 0 -130 0 -130 -115 0 -115 0 0 130 0 130 -240 0 -240
0 0 -135 0 -135 240 0 240 0 0 -130 0 -130 -355 0 -355 0 0 265 0 265 -130 0
-130 0 0 -130 0 -130 -115 0 -115 0 0 -135 0 -135 -480 0 -480 0 0 395 0 394
118 3 117 3 3 138 3 137 119 0 120 0 0 265 0 265 -120 0 -120 0 0 135 0 135
-245 0 -245 0 0 130 0 130 -120 0 -120 0 0 140 0 140 -120 0 -120 0 0 130 0
130 -120 0 -120 0 0 400 0 400 480 0 479 0 3 -132 3 -133 123 -3 122 -3 0
-134 0 -135 120 0 120 0 0 940 0 940 115 0 115 0 2 -1867z m5788 262 l0 -535
120 0 120 0 0 -660 0 -660 -120 0 -120 0 0 660 0 660 -120 0 -120 0 0 535 0
535 120 0 120 0 0 -535z m-2180 -1070 l0 -265 -235 0 -235 0 0 130 0 130 120
0 120 0 0 135 0 135 115 0 115 0 0 -265z m1690 0 l0 -265 -235 0 -235 0 0 130
0 130 120 0 120 0 0 135 0 135 115 0 115 0 0 -265z m-720 -135 l0 -130 -120 0
-120 0 0 130 0 130 120 0 120 0 0 -130z m-970 -540 l0 -130 245 0 245 0 0 130
0 130 120 0 120 0 0 -130 0 -130 245 0 245 0 0 130 0 130 115 0 115 0 0 -260
0 -260 -840 0 -840 0 0 260 0 260 115 0 115 0 0 -130z m2180 -260 l0 -130
-120 0 -120 0 0 130 0 130 120 0 120 0 0 -130z m-240 -270 l0 -130 -120 0
-120 0 0 130 0 130 120 0 120 0 0 -130z m-730 -805 l0 -135 -245 0 -245 0 0
135 0 135 245 0 245 0 0 -135z"/>
<path d="M6040 7710 l0 -140 125 0 125 0 0 140 0 140 -125 0 -125 0 0 -140z"/>
<path d="M6770 7710 l0 -140 120 0 120 0 0 140 0 140 -120 0 -120 0 0 -140z"/>
<path d="M4600 7440 l0 -130 120 0 120 0 0 130 0 130 -120 0 -120 0 0 -130z"/>
<path d="M6648 7313 c67 -2 177 -2 245 0 67 1 12 3 -123 3 -135 0 -190 -2
-122 -3z"/>
<path d="M7480 7185 l0 -135 125 0 125 0 0 135 0 135 -125 0 -125 0 0 -135z"/>
<path d="M5550 6645 l0 -135 120 0 120 0 0 135 0 135 -120 0 -120 0 0 -135z"/>
<path d="M2430 6380 l0 -140 120 0 120 0 0 -130 0 -130 120 0 120 0 0 -135 0
-135 120 0 120 0 0 -135 0 -135 245 0 245 0 0 140 0 140 -120 0 -120 0 0 130
0 130 -120 0 -119 0 -3 133 -3 132 -122 3 -123 3 0 134 0 135 -240 0 -240 0 0
-140z"/>
<path d="M5080 6110 l0 -130 120 0 120 0 0 130 0 130 -120 0 -120 0 0 -130z"/>
<path d="M4350 5580 l0 -130 125 0 125 0 0 130 0 130 -125 0 -125 0 0 -130z"/>
<path d="M5320 5040 l0 -140 120 0 120 0 0 140 0 140 -120 0 -120 0 0 -140z"/>
<path d="M4600 4775 l0 -135 120 0 120 0 0 135 0 135 -120 0 -120 0 0 -135z"/>
<path d="M3395 4097 c-3 -7 -4 -127 -3 -267 l3 -255 240 0 240 0 3 133 3 132
119 0 120 0 0 135 0 135 -360 0 c-282 0 -362 -3 -365 -13z"/>
<path d="M7010 3705 l0 -135 240 0 240 0 0 135 0 135 -240 0 -240 0 0 -135z"/>
</g>
</svg>
